# xmcd
#
# Track frame offsets: 
#        150
#        19150
#        36397
#        53665
#        68839
#        98883
#        118911
#        139258
#        158007
#
# Disc length: 2301 seconds
#
# Revision: 0
# Processed by: cddbd v1.5.2PL0 Copyright (c) Steve Scherf et al.
# Submitted via: ExactAudioCopy v0.99pb5
#
DISCID=7a08fb09
DTITLE=Open Blues - Seta w ryja
DYEAR=2010
DGENRE=Blues
TTITLE0=01.Blues zawladnal moja dusza
TTITLE1=02.Setaw ryja
TTITLE2=03.Boom boom
TTITLE3=04.Walkin` by myself
TTITLE4=05.The thrill is gone
TTITLE5=06.Mysle o tym...
TTITLE6=07.Messin` with the kid
TTITLE7=08.Komu bije dzwon
TTITLE8=09.I want to be loved
EXTD=
EXTT0=
EXTT1=
EXTT2=
EXTT3=
EXTT4=
EXTT5=
EXTT6=
EXTT7=
EXTT8=
PLAYORDER=
